<?xml version="1.0" standalone="no"?>
<svg xmlns:xlink="http://www.w3.org/1999/xlink" id="wave" style="transform:rotate(0deg); transition: 0.3s" viewBox="0 0 1440 490" version="1.1" xmlns="http://www.w3.org/2000/svg"><defs><linearGradient id="sw-gradient-0" x1="0" x2="0" y1="1" y2="0"><stop stop-color="rgba(243, 62, 230.993, 1)" offset="0%"/><stop stop-color="rgba(188, 78, 145, 1)" offset="100%"/></linearGradient></defs><path style="transform:translate(0, 0px); opacity:1" fill="url(#sw-gradient-0)" d="M0,147L40,122.5C80,98,160,49,240,24.5C320,0,400,0,480,73.5C560,147,640,294,720,367.5C800,441,880,441,960,400.2C1040,359,1120,278,1200,220.5C1280,163,1360,131,1440,106.2C1520,82,1600,65,1680,49C1760,33,1840,16,1920,24.5C2000,33,2080,65,2160,81.7C2240,98,2320,98,2400,147C2480,196,2560,294,2640,326.7C2720,359,2800,327,2880,277.7C2960,229,3040,163,3120,163.3C3200,163,3280,229,3360,228.7C3440,229,3520,163,3600,187.8C3680,212,3760,327,3840,343C3920,359,4000,278,4080,253.2C4160,229,4240,261,4320,236.8C4400,212,4480,131,4560,114.3C4640,98,4720,147,4800,163.3C4880,180,4960,163,5040,147C5120,131,5200,114,5280,98C5360,82,5440,65,5520,114.3C5600,163,5680,278,5720,334.8L5760,392L5760,490L5720,490C5680,490,5600,490,5520,490C5440,490,5360,490,5280,490C5200,490,5120,490,5040,490C4960,490,4880,490,4800,490C4720,490,4640,490,4560,490C4480,490,4400,490,4320,490C4240,490,4160,490,4080,490C4000,490,3920,490,3840,490C3760,490,3680,490,3600,490C3520,490,3440,490,3360,490C3280,490,3200,490,3120,490C3040,490,2960,490,2880,490C2800,490,2720,490,2640,490C2560,490,2480,490,2400,490C2320,490,2240,490,2160,490C2080,490,2000,490,1920,490C1840,490,1760,490,1680,490C1600,490,1520,490,1440,490C1360,490,1280,490,1200,490C1120,490,1040,490,960,490C880,490,800,490,720,490C640,490,560,490,480,490C400,490,320,490,240,490C160,490,80,490,40,490L0,490Z"/><defs><linearGradient id="sw-gradient-1" x1="0" x2="0" y1="1" y2="0"><stop stop-color="rgba(193.694, 62, 243, 1)" offset="0%"/><stop stop-color="rgba(238.125, 11, 255, 1)" offset="100%"/></linearGradient></defs><path style="transform:translate(0, 50px); opacity:0.9" fill="url(#sw-gradient-1)" d="M0,294L40,294C80,294,160,294,240,269.5C320,245,400,196,480,204.2C560,212,640,278,720,285.8C800,294,880,245,960,204.2C1040,163,1120,131,1200,98C1280,65,1360,33,1440,40.8C1520,49,1600,98,1680,163.3C1760,229,1840,310,1920,334.8C2000,359,2080,327,2160,326.7C2240,327,2320,359,2400,359.3C2480,359,2560,327,2640,334.8C2720,343,2800,392,2880,408.3C2960,425,3040,408,3120,375.7C3200,343,3280,294,3360,253.2C3440,212,3520,180,3600,147C3680,114,3760,82,3840,98C3920,114,4000,180,4080,236.8C4160,294,4240,343,4320,375.7C4400,408,4480,425,4560,400.2C4640,376,4720,310,4800,294C4880,278,4960,310,5040,334.8C5120,359,5200,376,5280,334.8C5360,294,5440,196,5520,187.8C5600,180,5680,261,5720,302.2L5760,343L5760,490L5720,490C5680,490,5600,490,5520,490C5440,490,5360,490,5280,490C5200,490,5120,490,5040,490C4960,490,4880,490,4800,490C4720,490,4640,490,4560,490C4480,490,4400,490,4320,490C4240,490,4160,490,4080,490C4000,490,3920,490,3840,490C3760,490,3680,490,3600,490C3520,490,3440,490,3360,490C3280,490,3200,490,3120,490C3040,490,2960,490,2880,490C2800,490,2720,490,2640,490C2560,490,2480,490,2400,490C2320,490,2240,490,2160,490C2080,490,2000,490,1920,490C1840,490,1760,490,1680,490C1600,490,1520,490,1440,490C1360,490,1280,490,1200,490C1120,490,1040,490,960,490C880,490,800,490,720,490C640,490,560,490,480,490C400,490,320,490,240,490C160,490,80,490,40,490L0,490Z"/><defs><linearGradient id="sw-gradient-2" x1="0" x2="0" y1="1" y2="0"><stop stop-color="rgba(187.563, 62, 243, 1)" offset="0%"/><stop stop-color="rgba(89.902, 31.164, 105.017, 1)" offset="100%"/></linearGradient></defs><path style="transform:translate(0, 100px); opacity:0.8" fill="url(#sw-gradient-2)" d="M0,0L40,16.3C80,33,160,65,240,106.2C320,147,400,196,480,187.8C560,180,640,114,720,138.8C800,163,880,278,960,269.5C1040,261,1120,131,1200,114.3C1280,98,1360,196,1440,236.8C1520,278,1600,261,1680,277.7C1760,294,1840,343,1920,334.8C2000,327,2080,261,2160,204.2C2240,147,2320,98,2400,81.7C2480,65,2560,82,2640,89.8C2720,98,2800,98,2880,89.8C2960,82,3040,65,3120,89.8C3200,114,3280,180,3360,196C3440,212,3520,180,3600,155.2C3680,131,3760,114,3840,98C3920,82,4000,65,4080,98C4160,131,4240,212,4320,228.7C4400,245,4480,196,4560,179.7C4640,163,4720,180,4800,163.3C4880,147,4960,98,5040,114.3C5120,131,5200,212,5280,228.7C5360,245,5440,196,5520,204.2C5600,212,5680,278,5720,310.3L5760,343L5760,490L5720,490C5680,490,5600,490,5520,490C5440,490,5360,490,5280,490C5200,490,5120,490,5040,490C4960,490,4880,490,4800,490C4720,490,4640,490,4560,490C4480,490,4400,490,4320,490C4240,490,4160,490,4080,490C4000,490,3920,490,3840,490C3760,490,3680,490,3600,490C3520,490,3440,490,3360,490C3280,490,3200,490,3120,490C3040,490,2960,490,2880,490C2800,490,2720,490,2640,490C2560,490,2480,490,2400,490C2320,490,2240,490,2160,490C2080,490,2000,490,1920,490C1840,490,1760,490,1680,490C1600,490,1520,490,1440,490C1360,490,1280,490,1200,490C1120,490,1040,490,960,490C880,490,800,490,720,490C640,490,560,490,480,490C400,490,320,490,240,490C160,490,80,490,40,490L0,490Z"/><defs><linearGradient id="sw-gradient-3" x1="0" x2="0" y1="1" y2="0"><stop stop-color="rgba(115.741, 31.477, 182.427, 1)" offset="0%"/><stop stop-color="rgba(120.781, 63.631, 180.151, 1)" offset="100%"/></linearGradient></defs><path style="transform:translate(0, 150px); opacity:0.7" fill="url(#sw-gradient-3)" d="M0,49L40,40.8C80,33,160,16,240,40.8C320,65,400,131,480,138.8C560,147,640,98,720,81.7C800,65,880,82,960,98C1040,114,1120,131,1200,138.8C1280,147,1360,147,1440,130.7C1520,114,1600,82,1680,114.3C1760,147,1840,245,1920,302.2C2000,359,2080,376,2160,367.5C2240,359,2320,327,2400,318.5C2480,310,2560,327,2640,334.8C2720,343,2800,343,2880,351.2C2960,359,3040,376,3120,383.8C3200,392,3280,392,3360,343C3440,294,3520,196,3600,179.7C3680,163,3760,229,3840,285.8C3920,343,4000,392,4080,416.5C4160,441,4240,441,4320,367.5C4400,294,4480,147,4560,73.5C4640,0,4720,0,4800,49C4880,98,4960,196,5040,220.5C5120,245,5200,196,5280,196C5360,196,5440,245,5520,261.3C5600,278,5680,261,5720,253.2L5760,245L5760,490L5720,490C5680,490,5600,490,5520,490C5440,490,5360,490,5280,490C5200,490,5120,490,5040,490C4960,490,4880,490,4800,490C4720,490,4640,490,4560,490C4480,490,4400,490,4320,490C4240,490,4160,490,4080,490C4000,490,3920,490,3840,490C3760,490,3680,490,3600,490C3520,490,3440,490,3360,490C3280,490,3200,490,3120,490C3040,490,2960,490,2880,490C2800,490,2720,490,2640,490C2560,490,2480,490,2400,490C2320,490,2240,490,2160,490C2080,490,2000,490,1920,490C1840,490,1760,490,1680,490C1600,490,1520,490,1440,490C1360,490,1280,490,1200,490C1120,490,1040,490,960,490C880,490,800,490,720,490C640,490,560,490,480,490C400,490,320,490,240,490C160,490,80,490,40,490L0,490Z"/></svg>